<?xml version="1.0" encoding="UTF-8"?>
<!DOCTYPE svg PUBLIC "-//W3C//DTD SVG 1.1//EN" "http://www.w3.org/Graphics/SVG/1.1/DTD/svg11.dtd">
<!-- Creator: CorelDRAW 2020 (64-Bit) -->
<svg xmlns="http://www.w3.org/2000/svg" xml:space="preserve" width="110mm" height="110mm" version="1.1" style="shape-rendering:geometricPrecision; text-rendering:geometricPrecision; image-rendering:optimizeQuality; fill-rule:evenodd; clip-rule:evenodd"
viewBox="0 0 11000 11000"
 xmlns:xlink="http://www.w3.org/1999/xlink"
 xmlns:xodm="http://www.corel.com/coreldraw/odm/2003">
 <defs>
  <style type="text/css">
   <![CDATA[
    .fil0 {fill:white;fill-rule:nonzero}
   ]]>
  </style>
 </defs>
 <g id="Capa_x0020_1">
  <metadata id="CorelCorpID_0Corel-Layer"/>
  <g id="_2483338992352">
   <image x="273.81" y="1869.29" width="4825.14" height="3628.53" xlink:href="logo_Images\logo_ImgID1.jpg"/>
  </g>
  <path class="fil0" d="M447.51 5481.49c0,0 2008.2,2816.22 2107.4,2886.14 98.95,69.12 -862.75,-1720.64 -2107.4,-2886.14z"/>
  <path class="fil0" d="M297.43 5497.96c1926.42,2793.58 1854.77,2758.39 2047.04,2893.92 98.35,69.66 -802.11,-1728.41 -2047.04,-2893.92z"/>
  <path class="fil0" d="M4342.44 6517.82c0,0 114.25,1798.57 411.11,2318.48 0,0 -69.27,-1460.34 -411.11,-2318.48z"/>
  <path class="fil0" d="M820.96 5514.58c0,0 1649.23,2705.77 1895.5,2900.8 246.37,194.25 -1736.93,-2901.3 -1895.5,-2900.8z"/>
  <path class="fil0" d="M1080.19 5521.32c0,0 1092.71,1992.96 1851.15,2927.12 0,0 -1668.66,-2902.8 -1851.15,-2927.12z"/>
  <path class="fil0" d="M1291.19 5552.07c0,0 1562.71,2834.41 1707.11,2987.97 145.04,152.92 -1497.05,-2967.55 -1707.11,-2987.97z"/>
  <path class="fil0" d="M1509.23 5581.82c0,0 860.02,1803.33 1600.42,3015.81 0,0 -1363.66,-2999.26 -1600.42,-3015.81z"/>
  <path class="fil0" d="M1770.16 5626.56l-60.25 -12.53c0,0 947.33,2067.34 1410.89,2705.77l187.89 271.94c0,0 -1356.03,-2893.03 -1538.53,-2965.18z"/>
  <path class="fil0" d="M1995.8 5675.81l-86.06 -20.03c0,0 802.53,1714.74 1182.15,2315.99l430.01 626.14 -1160.11 -2344.64c0,0 -341.56,-591.1 -365.99,-577.46z"/>
  <path class="fil0" d="M2225.98 5734.78l-84.43 -16.54c0,0 644.07,1373.67 769.59,1594.76 0,0 708.93,1178.79 760.81,1288.86 0,0 -923.64,-2163.89 -1445.97,-2867.08z"/>
  <path class="fil0" d="M2430.39 5793.79l-52.62 -3.41c0,0 549.63,1199.59 640.06,1339.49 0,0 723.11,1493.82 875.92,1604.53 0,0 -1240.67,-2783.82 -1463.36,-2940.61z"/>
  <path class="fil0" d="M2654.79 5846.91l-47.37 -4.51c0,0 266.68,720.73 630.19,1432.68 0,0 586.8,1261.98 786.98,1483.67 0,0 -1172.39,-2710.17 -1369.8,-2911.84z"/>
  <path class="fil0" d="M2885.75 5947.28l-61.6 -19.03c0,0 -25.43,184.24 764.43,1848.28l597.2 1069.43c0,0 -1210.2,-2877.62 -1300.03,-2898.68z"/>
  <path class="fil0" d="M3108.01 6024.68l-77.54 -36.57c0,0 872.65,2245.34 1123.18,2625.85 0,0 -744.27,-2149.61 -1045.64,-2589.28z"/>
  <path class="fil0" d="M3337.45 6107.98l-72.64 -31.71c0,0 537.73,1612.06 990.64,2737.48 0,0 97.21,159.96 97.21,208.17 0,0 -955.21,-2935.35 -1015.21,-2913.94z"/>
  <path class="fil0" d="M3551.41 6186.45l-59.26 -33.59c0,0 521.82,2062.59 869.53,2857.84 0,0 -741.14,-2826.13 -810.27,-2824.25z"/>
  <path class="fil0" d="M3756.24 6273.26l-73.5 -31.81c0,0 401.43,1878.1 704.29,2755.01 0,0 -522.32,-2689.12 -630.79,-2723.2z"/>
  <path class="fil0" d="M3949.46 6362.84l-66.5 -32.06c0,0 110.21,1650.37 653.69,2701.26 0,0 -473.71,-2554.59 -587.19,-2669.2z"/>
  <path class="fil0" d="M4210.39 6453.06l-71.4 -22.4c0,0 -115,858.09 645.95,2480.66 0,0 -526.58,-2457.27 -574.55,-2458.26z"/>
  <path class="fil0" d="M4564.63 6657.71l-69.88 -58.51c0,0 159.71,1908.53 428.73,2333.14 0,0 -248.75,-2185.97 -358.85,-2274.63z"/>
  <path class="fil0" d="M4735.69 6740.09l-81.66 -44.35c0,0 196.63,1794.52 486.25,2204.36 0,0 -298.64,-2036.28 -404.59,-2160.01z"/>
  <path class="fil0" d="M4933.53 6878.88l-77.68 -65.26c0,0 195.03,1829.21 485.75,2149.36 0,0 -357.22,-2063.08 -408.07,-2084.1z"/>
  <path class="fil0" d="M5103.78 6970.52l-89.19 -50.1c0,0 232.74,1748.19 454.68,2022.5 0,0 -181.5,-1735.05 -365.49,-1972.4z"/>
  <path class="fil0" d="M5292.81 7121.13l-68.63 -53.22c0,0 234.34,1714.24 473.08,2006.6 0,0 -282.84,-1873.1 -404.45,-1953.38z"/>
  <path class="fil0" d="M5482.87 7247.32l-75.77 -44.99c0,0 248.26,1601.66 465.09,1835.14 0,0 -340.07,-1782.41 -389.32,-1790.15z"/>
  <path class="fil0" d="M5640.06 7371.45l-62.35 -54.11c0,0 247.76,1602.29 425.71,1750.85 0,0 -293.7,-1692.23 -363.36,-1696.74z"/>
  <path class="fil0" d="M5785.45 7479.74l-85.78 -77.9c0,0 320.4,1529.97 503.4,1712.72 0,0 -353.46,-1622.18 -417.62,-1634.82z"/>
  <path class="fil0" d="M5900.49 7564.53l-61 -46.84c0,0 479.61,1433.19 609.13,1526.1 0,0 -457.06,-1470.49 -548.13,-1479.26z"/>
  <path class="fil0" d="M6050.75 7682.44l-87.81 -81.42c0,0 450.18,1290.88 594.83,1405.88 0,0 -423.97,-1320.09 -507.02,-1324.46z"/>
  <path class="fil0" d="M6225.47 7802.73l-85.81 -61.39c0,0 426.98,1190.43 582.07,1309.31 0,0 -474.35,-1235.78 -496.26,-1247.92z"/>
  <path class="fil0" d="M6409.67 7959.2l-83.65 -81.76c0,0 395.07,1101.09 591.85,1256.04 0,0 -494.67,-1186.56 -508.2,-1174.28z"/>
  <path class="fil0" d="M6580.17 8088.23l-91.78 -67.14c0,0 395.78,978.75 578.78,1106.14 0,0 -461.29,-1007.79 -487,-1039z"/>
  <path class="fil0" d="M6784.08 8243.82c0,0 256.28,607.5 558.79,881.32 0,0 -505.42,-870.67 -558.79,-881.32z"/>
  <path class="fil0" d="M292.07 5472.68c0,0 1964.88,65.37 2673.81,420.99 0,0 1501.07,457.56 2695.41,1451.08l1203.71 964.22c0,0 -1769.99,-1433.93 -2479.96,-1739.95 0,0 -1916.66,-956.06 -3078.54,-941.39l-1018.05 -45.88 3.62 -109.07z"/>
  <path class="fil0" d="M267.21 5477.54l-11.29 -87.66c0,0 1857.05,-1129.96 2307.08,-1169.02 0,0 -2151.49,1245.04 -2295.79,1256.68z"/>
  <path class="fil0" d="M553.78 5489.15l-105.35 -13.13c0,0 1573.72,-1029.98 2365.21,-1197.21 0,0 -2204.61,1161.63 -2259.86,1210.34z"/>
  <path class="fil0" d="M651.7 5512.52l-116.74 -21.8c0,0 2495.47,-1207.94 3006.9,-1247.92 0,0 -2632.78,1187.56 -2890.16,1269.72z"/>
  <path class="fil0" d="M928.15 5520.93l-161.05 -20.02c0,0 1579.71,-672.02 2764.14,-842.98 0,0 -2447.89,835.7 -2603.09,863z"/>
  <path class="fil0" d="M1149.39 5526.22l-124.03 -4.4c0,0 1794.06,-666.08 2949.02,-805.37 0,0 -2785.05,845.85 -2824.99,809.77z"/>
  <path class="fil0" d="M1335.47 5535.95l-140.28 -7.38c0,0 2393.39,-716.08 3086.42,-715.23 0,0 -2859.08,715.86 -2946.14,722.61z"/>
  <path class="fil0" d="M1509.23 5581.82l-88.4 -26.41c0,0 1488.03,-445.77 3181.86,-504.78l-3093.46 531.19z"/>
  <path class="fil0" d="M1798.46 5608.56l-105.73 -20.03c0,0 308.01,-334.17 3118.24,-414.1l-3012.51 434.13z"/>
  <path class="fil0" d="M2022.08 5641.19l-121.11 -19.92c0,0 2562.86,-485.25 3149.16,-356.23 0,0 -2929.35,456.04 -3028.05,376.15z"/>
  <path class="fil0" d="M2191.93 5670.59c0,0 1774.5,-344.58 3059.77,-214.95l-2927.22 243.64c0,0 -68.78,-11.29 -132.55,-28.69z"/>
  <path class="fil0" d="M2447.5 5729.35c0,0 2307.19,-274.67 3094.06,-115.36l-2949.66 148.2 -144.4 -32.84z"/>
  <path class="fil0" d="M2698.67 5789.46c0,0 1904.02,-154.45 2987.47,94.94l-2894.41 -55.99 -93.06 -38.95z"/>
  <path class="fil0" d="M3058.48 5927.79l-131.12 -55c0,0 2303.46,-67.74 2928.11,118.38l-2796.99 -63.38z"/>
  <path class="fil0" d="M3329.89 6022.8l-113.73 -50.73c0,0 2212.92,-59.01 2823.9,149.55 0,0 -2573.51,-34.05 -2710.17,-98.82z"/>
  <path class="fil0" d="M3624.23 6135.32l-113.12 -46.83c0,0 2024.63,-75.91 2674.21,189.63l-2561.09 -142.8z"/>
  <path class="fil0" d="M3840.32 6230.83l-105.99 -47.72c0,0 1653.53,-37.07 2642.64,297.22l-2536.65 -249.5z"/>
  <path class="fil0" d="M4010.85 6318.6l-67.5 -35.58c0,0 2316.74,195.78 2597.91,340.96 0,0 -2067.21,-166.59 -2530.41,-305.38z"/>
  <path class="fil0" d="M4315.91 6474.93l-151.07 -83.79c0,0 2066.74,134.53 2557.75,400.68l-2406.68 -316.89z"/>
  <path class="fil0" d="M6985.36 8409.88l-61 -43.36c0,0 554.64,726.98 602.85,751.41 0,0 -401.96,-639.92 -541.85,-708.05z"/>
  <path class="fil0" d="M4544.71 6599.66l-111.35 -57.87c0,0 1580.22,18.03 2383.1,454.54 0,0 -2227.65,-376.64 -2271.75,-396.67z"/>
  <path class="fil0" d="M4745.88 6707.31l-89.43 -44.7c0,0 1893.76,234.73 2256.87,439.92l-2167.44 -395.22z"/>
  <path class="fil0" d="M4943.72 6836.52l-114.5 -77.94c0,0 1848.27,281.95 2246.72,518.95l-2132.22 -441.01z"/>
  <path class="fil0" d="M5147.42 6969.52l-91.43 -65.26c0,0 1850.66,380.16 2270.86,702.2l-2179.43 -636.94z"/>
  <path class="fil0" d="M5375.22 7126l-91.04 -60.36c0,0 1953.34,412.57 2320.47,803.88 0,0 -2140.98,-698.82 -2229.43,-743.52z"/>
  <path class="fil0" d="M5611.47 7311.51l-92.31 -75.52c0,0 1850.41,499 2186.47,765.18 0,0 -1866.07,-533.72 -2094.16,-689.66z"/>
  <path class="fil0" d="M5859.59 7506.05l-103.47 -79.53c0,0 1688.68,443.53 2065.33,709.08 0,0 -1795.91,-511.67 -1961.86,-629.55z"/>
  <path class="fil0" d="M6073.97 7679.46l-111.1 -78.44c0,0 1750.96,460.97 1994.81,702.7 0,0 -1563.31,-434.13 -1883.71,-624.26z"/>
  <path class="fil0" d="M6326.09 7877.4l-114.75 -102.33c0,0 1574.6,479.33 1913.29,775.09 0,0 -1651.61,-528.61 -1798.54,-672.76z"/>
  <path class="fil0" d="M6602.65 8099.1l-114.33 -78.04c0,0 1375.91,438.13 1679.41,670.09 0,0 -1528.23,-545.47 -1565.08,-592.05z"/>
  <path class="fil0" d="M6864.96 8308.93l-122.99 -93.91c0,0 1255.44,388.29 1447.7,590.46 0,0 -1307.77,-471.09 -1324.71,-496.55z"/>
  <path class="fil0" d="M7103.31 8494.66l-106.69 -78.89c0,0 592.3,73.14 1203.71,519.41l-1097.02 -440.52z"/>
  <path class="fil0" d="M7184.19 8556.48l1030.34 463.45 -1018.19 -423.86c0,0 -27.06,-44.85 -12.15,-39.59z"/>
  <path class="fil0" d="M7230.92 8601.82c0,0 563.26,577.43 733.86,613 170.36,36.22 -620.49,-545.22 -620.49,-545.22l-113.37 -67.78z"/>
  <polygon class="fil0" points="7490.43,8705.21 8136.49,9157.87 7494.58,8790.89 7291.42,8638.32 "/>
  <polygon class="fil0" points="7652.69,8787.51 8202.81,9062.47 7678.25,8846.03 7537.19,8744.06 "/>
  <g id="_2483437185680">
   <image x="189.53" y="5561.13" width="4909.42" height="4746.63" xlink:href="logo_Images\logo_ImgID2.jpg"/>
  </g>
  <path class="fil0" d="M5502.05 352.67c-2828.16,0 -5128.99,2300.8 -5128.99,5128.82 0,2828.05 2300.83,5128.74 5128.99,5128.74 2828.01,0 5128.7,-2300.69 5128.7,-5128.74 0,-2828.02 -2300.69,-5128.82 -5128.7,-5128.82zm0 10448.08c-2933.12,0 -5319.48,-2386.26 -5319.48,-5319.26 0,-2933.08 2386.36,-5319.34 5319.48,-5319.34 2932.97,0 5319.23,2386.26 5319.23,5319.34 0,2933 -2386.26,5319.26 -5319.23,5319.26z"/>
 </g>
</svg>
